<?xml version="1.0" encoding="UTF-8" standalone="no"?>
<svg
   xmlns:dc="http://purl.org/dc/elements/1.1/"
   xmlns:cc="http://creativecommons.org/ns#"
   xmlns:rdf="http://www.w3.org/1999/02/22-rdf-syntax-ns#"
   xmlns:svg="http://www.w3.org/2000/svg"
   xmlns="http://www.w3.org/2000/svg"
   xmlns:sodipodi="http://sodipodi.sourceforge.net/DTD/sodipodi-0.dtd"
   xmlns:inkscape="http://www.inkscape.org/namespaces/inkscape"
   enable-background="new 0 0 300 300"
   height="340"
   id="Layer_1"
   version="1.1"
   viewBox="0 0 1480 340"
   width="1480"
   xml:space="preserve"
   sodipodi:docname="korporize.svg"
   inkscape:version="0.92.4 (5da689c313, 2019-01-14)"><metadata
     id="metadata4546"><rdf:RDF><cc:Work
         rdf:about=""><dc:format>image/svg+xml</dc:format><dc:type
           rdf:resource="http://purl.org/dc/dcmitype/StillImage" /><dc:title /></cc:Work></rdf:RDF></metadata><defs
     id="defs4544" /><sodipodi:namedview
     pagecolor="#ffffff"
     bordercolor="#666666"
     borderopacity="1"
     objecttolerance="10"
     gridtolerance="10"
     guidetolerance="10"
     inkscape:pageopacity="0"
     inkscape:pageshadow="2"
     inkscape:window-width="1920"
     inkscape:window-height="1027"
     id="namedview4542"
     showgrid="false"
     showguides="true"
     inkscape:guide-bbox="true"
     inkscape:snap-object-midpoints="false"
     inkscape:snap-page="true"
     inkscape:snap-center="false"
     inkscape:snap-bbox="true"
     inkscape:snap-bbox-midpoints="true"
     inkscape:zoom="0.39427963"
     inkscape:cx="637.04326"
     inkscape:cy="172.39748"
     inkscape:window-x="-8"
     inkscape:window-y="-8"
     inkscape:window-maximized="1"
     inkscape:current-layer="Layer_1" /><path
     d="m 275.50797,150.50498 c 0,69.03754 -55.96996,125.00299 -125.00719,125.00299 -69.037243,0 -124.992813,-55.96545 -124.992813,-125.00299 0,-69.033949 55.95557,-124.996999 124.992813,-124.996999 69.03723,0 125.00719,55.96305 125.00719,124.996999 z"
     id="path4535-5-9"
     inkscape:connector-curvature="0"
     style="font-style:normal;font-weight:normal;font-size:32.2364006px;line-height:1.25;font-family:sans-serif;letter-spacing:0px;word-spacing:0px;fill:#00c0e0;fill-opacity:1;stroke:none;stroke-width:1.19696534" /><path
     d="M 66.213397,44.952431 V 120.34923 H 40.537827 V 44.952431 Z"
     style="font-style:normal;font-variant:normal;font-weight:bold;font-stretch:normal;font-size:40px;line-height:1.25;font-family:'Humnst777 Blk BT';-inkscape-font-specification:'Humnst777 Blk BT Bold';font-variant-ligatures:normal;font-variant-caps:normal;font-variant-numeric:normal;font-feature-settings:normal;text-align:start;letter-spacing:0px;word-spacing:0px;writing-mode:lr-tb;text-anchor:start;fill:#e00000;fill-opacity:1;stroke:none;stroke-width:6.95551014"
     id="path4614-6-6"
     inkscape:connector-curvature="0" /><path
     d="m 114.71162,47.397701 h 49.04165 V 171.42887 l 38.30962,-58.41551 h 53.79636 l -48.22654,62.35519 52.84541,80.69499 h -58.14355 l -38.5813,-74.5817 v 74.5817 h -49.04165 z"
     style="font-style:normal;font-variant:normal;font-weight:bold;font-stretch:normal;font-size:40px;line-height:1.25;font-family:'Humnst777 Blk BT';-inkscape-font-specification:'Humnst777 Blk BT Bold';font-variant-ligatures:normal;font-variant-caps:normal;font-variant-numeric:normal;font-feature-settings:normal;text-align:start;letter-spacing:0px;word-spacing:0px;writing-mode:lr-tb;text-anchor:start;fill:#001820;fill-opacity:1;stroke:none;stroke-width:6.95551014"
     id="path4616-2-0"
     inkscape:connector-curvature="0" /><path
     inkscape:connector-curvature="0"
     id="path820"
     style="font-style:normal;font-variant:normal;font-weight:normal;font-stretch:normal;font-size:40px;line-height:1.25;font-family:'Humnst777 Blk BT';-inkscape-font-specification:'Humnst777 Blk BT';letter-spacing:0px;word-spacing:0px;fill:#000c10;fill-opacity:1;stroke:none;stroke-width:6.9992671"
     d="m 347.58756,144.04777 q -13.9438,0 -22.69288,11.34652 -8.61239,11.20974 -8.61239,29.80154 0,18.31842 8.61239,29.66486 8.74908,11.20974 22.69288,11.20974 14.21726,0 22.69295,-11.07305 8.61239,-11.20974 8.61239,-29.80155 0,-18.72849 -8.61239,-29.93831 -8.47569,-11.20975 -22.69295,-11.20975 z m 0,-34.44948 q 38.96079,0 60.8335,20.09553 22.0094,20.09552 22.0094,55.77541 0,35.40642 -22.0094,55.50201 -21.87271,20.09553 -60.8335,20.09553 -38.82403,0 -60.69673,-20.09553 -21.87271,-20.09559 -21.87271,-55.50201 0,-35.67989 21.87271,-55.77541 21.8727,-20.09553 60.69673,-20.09553 z" /><path
     inkscape:connector-curvature="0"
     id="path822"
     style="font-style:normal;font-variant:normal;font-weight:normal;font-stretch:normal;font-size:40px;line-height:1.25;font-family:'Humnst777 Blk BT';-inkscape-font-specification:'Humnst777 Blk BT';letter-spacing:0px;word-spacing:0px;fill:#000c10;fill-opacity:1;stroke:none;stroke-width:6.9992671"
     d="m 562.55528,111.23871 -2.59736,42.51509 q -3.00752,-1.23033 -6.69851,-1.77719 -3.69106,-0.68382 -8.61239,-0.68382 -17.63486,0 -26.65734,11.34644 -8.88585,11.34651 -8.88585,33.35591 v 61.38029 h -49.35029 v -143.9498 h 44.01888 v 27.47758 q 7.51869,-15.99437 18.31834,-23.64982 10.79966,-7.65545 25.56378,-7.65545 3.82769,0 13.9438,1.50372 z" /><path
     inkscape:connector-curvature="0"
     id="path824"
     style="font-style:normal;font-variant:normal;font-weight:normal;font-stretch:normal;font-size:40px;line-height:1.25;font-family:'Humnst777 Blk BT';-inkscape-font-specification:'Humnst777 Blk BT';letter-spacing:0px;word-spacing:0px;fill:#000c10;fill-opacity:1;stroke:none;stroke-width:6.9992671"
     d="m 631.04422,237.28018 v 78.60506 H 581.69393 V 113.42598 h 44.2922 v 27.47758 q 8.4757,-15.1742 21.73602,-23.23973 13.39701,-8.06554 30.07501,-8.06554 29.118,0 46.88963,20.50561 17.77156,20.50569 17.77156,54.54508 0,34.0394 -18.04502,55.36532 -17.90826,21.32586 -46.06939,21.32586 -15.0375,0 -26.93073,-6.01496 -11.7566,-6.01503 -20.36899,-18.04502 z m 30.75849,-90.77174 q -14.35395,0 -22.55625,10.38957 -8.20224,10.3895 -8.20224,28.57122 0,17.63486 8.06554,28.02443 8.0656,10.25281 21.87271,10.25281 13.94387,0 22.14617,-10.66297 8.33893,-10.66289 8.33893,-29.118 0,-16.95138 -8.20223,-27.20419 -8.06561,-10.25287 -21.46263,-10.25287 z" /><path
     inkscape:connector-curvature="0"
     id="path826"
     style="font-style:normal;font-variant:normal;font-weight:normal;font-stretch:normal;font-size:40px;line-height:1.25;font-family:'Humnst777 Blk BT';-inkscape-font-specification:'Humnst777 Blk BT';letter-spacing:0px;word-spacing:0px;fill:#000c10;fill-opacity:1;stroke:none;stroke-width:6.9992671"
     d="m 847.31066,144.04777 q -13.94387,0 -22.69296,11.34652 -8.61239,11.20974 -8.61239,29.80154 0,18.31842 8.61239,29.66486 8.74909,11.20974 22.69296,11.20974 14.21726,0 22.69288,-11.07305 8.61239,-11.20974 8.61239,-29.80155 0,-18.72849 -8.61239,-29.93831 -8.47562,-11.20975 -22.69288,-11.20975 z m 0,-34.44948 q 38.96072,0 60.83342,20.09553 22.00941,20.09552 22.00941,55.77541 0,35.40642 -22.00941,55.50201 -21.8727,20.09553 -60.83342,20.09553 -38.8241,0 -60.69681,-20.09553 -21.87271,-20.09559 -21.87271,-55.50201 0,-35.67989 21.87271,-55.77541 21.87271,-20.09553 60.69681,-20.09553 z" /><path
     inkscape:connector-curvature="0"
     id="path828"
     style="font-style:normal;font-variant:normal;font-weight:normal;font-stretch:normal;font-size:40px;line-height:1.25;font-family:'Humnst777 Blk BT';-inkscape-font-specification:'Humnst777 Blk BT';letter-spacing:0px;word-spacing:0px;fill:#000c10;fill-opacity:1;stroke:none;stroke-width:6.9992671"
     d="m 1062.3467,111.23871 -2.5973,42.51509 q -3.0076,-1.23033 -6.6986,-1.77719 -3.691,-0.68382 -8.6123,-0.68382 -17.6349,0 -26.6574,11.34644 -8.8858,11.34651 -8.8858,33.35591 v 61.38029 h -49.35035 v -143.9498 h 44.01895 v 27.47758 q 7.5186,-15.99437 18.3183,-23.64982 10.7997,-7.65545 25.5638,-7.65545 3.8277,0 13.9438,1.50372 z" /><path
     inkscape:connector-curvature="0"
     id="path830"
     style="font-style:normal;font-variant:normal;font-weight:normal;font-stretch:normal;font-size:40px;line-height:1.25;font-family:'Humnst777 Blk BT';-inkscape-font-specification:'Humnst777 Blk BT';letter-spacing:0px;word-spacing:0px;fill:#000c10;fill-opacity:1;stroke:none;stroke-width:6.9992671"
     d="m 1081.7588,113.42598 h 49.3503 v 143.9498 h -49.3503 z m 0,-66.028218 h 49.3503 v 40.054356 h -49.3503 z" /><path
     inkscape:connector-curvature="0"
     id="path832"
     style="font-style:normal;font-variant:normal;font-weight:normal;font-stretch:normal;font-size:40px;line-height:1.25;font-family:'Humnst777 Blk BT';-inkscape-font-specification:'Humnst777 Blk BT';letter-spacing:0px;word-spacing:0px;fill:#000c10;fill-opacity:1;stroke:none;stroke-width:6.9992671"
     d="m 1163.0979,113.42598 h 120.71 v 38.14055 l -71.0863,70.26606 h 71.0863 v 35.54319 h -122.6238 v -41.42146 l 68.6255,-66.71176 h -66.7117 z" /><path
     inkscape:connector-curvature="0"
     id="path834"
     style="font-style:normal;font-variant:normal;font-weight:normal;font-stretch:normal;font-size:40px;line-height:1.25;font-family:'Humnst777 Blk BT';-inkscape-font-specification:'Humnst777 Blk BT';letter-spacing:0px;word-spacing:0px;fill:#000c10;fill-opacity:1;stroke:none;stroke-width:6.9992671"
     d="m 1450.3139,187.92989 v 12.02999 h -101.0245 q 1.5037,14.08056 12.1667,21.73601 10.6629,7.65545 28.7079,7.65545 10.7996,0 22.8296,-3.00751 12.03,-3.00745 24.7435,-9.02248 v 35.26973 q -12.0299,4.37454 -25.1536,6.56181 -12.9869,2.18727 -27.2042,2.18727 -39.3708,0 -61.517,-20.77907 -22.1461,-20.77908 -22.1461,-57.68922 0,-33.62931 20.369,-53.45144 20.5057,-19.82214 55.2285,-19.82214 34.9964,0 53.9983,20.36892 19.0019,20.36899 19.0019,57.96268 z m -43.6087,-17.08801 q -1.5037,-14.49072 -9.2959,-22.69296 -7.7921,-8.33899 -19.8221,-8.33899 -11.8933,0 -19.5488,8.33899 -7.6554,8.20224 -9.2959,22.69296 z" /></svg>